<svg id="Layer_1" data-name="Layer 1" xmlns="http://www.w3.org/2000/svg" viewBox="0 0 999.99 986.5"><path d="M800.2,703.7c-7.3-7.3-8.3-19.9-2.7-28.6a429.67,429.67,0,0,0,69.8-234.9C867.3,201,672.7,6.5,433.7,6.5,194.5,6.5,0,201,0,440.2S194.5,873.8,433.7,873.8c93.1,0,179.3-29.9,250.1-80.1,8.3-6,20.8-5.2,28.1,2l155,155a27.89,27.89,0,0,0,3.2,2.8c1.8,1.5,9.3,8.5,16.5,15.8L905,987.6a18.71,18.71,0,0,0,26.3,0l63.2-63.2a18.74,18.74,0,0,0,.1-26.4L800.2,703.7ZM696,642.2A331.12,331.12,0,0,1,433.7,771.8C250.8,771.8,102,623,102,440.2S250.8,108.5,433.7,108.5,765.3,257.3,765.3,440.2c0,76-26.1,146-69.3,202Z" transform="translate(0 -6.5)"/></svg>