<svg data-name="Layer 1" xmlns="http://www.w3.org/2000/svg" viewBox="0 0 240.21 48.57"><defs><style>.cls-1{fill:#b1976b;}.cls-2{fill:#161616;}</style></defs><path class="cls-1" d="M15,35.91q-.18-.27-.3-.42a1.23,1.23,0,0,1-.08-.12l0,0a1.32,1.32,0,0,0-.09.17c-.05.11-.12.26-.19.45a5.5,5.5,0,0,0-.33,1.49,3.34,3.34,0,0,0,.06.89,3.51,3.51,0,0,0,.32.87,2.25,2.25,0,0,0,.12.21l.15.19a3.28,3.28,0,0,0,1.35.87A1.6,1.6,0,0,0,16.45,39a3.28,3.28,0,0,0-.25-.83,2,2,0,0,0-.1-.21A1,1,0,0,0,16,37.7c-.06-.14-.13-.28-.2-.41a8.77,8.77,0,0,0-.46-.75C15.22,36.3,15.08,36.09,15,35.91Z"/><path class="cls-1" d="M12.81,34.77l-.05-.21c-.07-.28-.15-.54-.23-.77a2.92,2.92,0,0,1-.13-.34c0-.11-.07-.21-.1-.31-.14-.37-.25-.6-.25-.6a6,6,0,0,0-.77,1.15,3.94,3.94,0,0,0-.32.76,4,4,0,0,0-.15.85c0,.15,0,.3,0,.44l0,.22.06.21a2.53,2.53,0,0,0,.44.8,1.68,1.68,0,0,0,.36.34,3.57,3.57,0,0,0,.48.28,1.65,1.65,0,0,0,.8-1.37,3.33,3.33,0,0,0,0-.83c0-.14,0-.28-.08-.42Z"/><path class="cls-1" d="M8.76,34.09a1.77,1.77,0,0,0,.38.33,1.79,1.79,0,0,0,1.09-1.17c0-.13.08-.26.11-.39s.05-.27.07-.41a4.39,4.39,0,0,0,0-.81,6.54,6.54,0,0,0,0-.78c0-.24-.06-.45-.07-.65,0-.37-.09-.62-.09-.62a6.09,6.09,0,0,0-.52.47,5.27,5.27,0,0,0-.49.53,4,4,0,0,0-.26.32,3.13,3.13,0,0,0-.22.36,4.25,4.25,0,0,0-.36.78,3.2,3.2,0,0,0-.1.42,3,3,0,0,0,0,.42,2.18,2.18,0,0,0,.22.82A1.39,1.39,0,0,0,8.76,34.09Z"/><path class="cls-1" d="M6.49,30.58a2.55,2.55,0,0,0,.29.38A2,2,0,0,0,8.1,30a1,1,0,0,0,.1-.17,1.62,1.62,0,0,0,.1-.18c.06-.12.11-.25.16-.38a6,6,0,0,0,.21-.78c.06-.27.11-.52.14-.76s0-.23,0-.34,0-.21,0-.3a5.27,5.27,0,0,0,0-.62s-.24.13-.6.38c-.17.12-.37.27-.58.45a5.45,5.45,0,0,0-.6.58,5.17,5.17,0,0,0-.52.71,3.49,3.49,0,0,0-.19.39,1.82,1.82,0,0,0-.11.4,1.85,1.85,0,0,0,0,.81A1.25,1.25,0,0,0,6.49,30.58Z"/><path class="cls-1" d="M7,26.29a4.12,4.12,0,0,0,.49-.67,5.6,5.6,0,0,0,.36-.74,9.84,9.84,0,0,0,.46-1.35c.1-.37.16-.61.16-.61s-.27.11-.65.31c-.18.1-.41.23-.63.37a6.34,6.34,0,0,0-.68.51,3.71,3.71,0,0,0-1.08,1.34,2.13,2.13,0,0,0-.16.78,1.61,1.61,0,0,0,.26.79A2.09,2.09,0,0,0,7,26.29Z"/><path class="cls-1" d="M6.18,22.89a3.83,3.83,0,0,0,.29-.28c.1-.1.19-.21.28-.32a7.64,7.64,0,0,0,.47-.69l.19-.35.17-.35q.17-.34.27-.63c.13-.36.21-.6.21-.6a6.46,6.46,0,0,0-.65.27A9.11,9.11,0,0,0,6,20.71a6.25,6.25,0,0,0-.69.56,3.22,3.22,0,0,0-.53.65,2,2,0,0,0-.29.74,1.85,1.85,0,0,0,.11.79A2.21,2.21,0,0,0,6.18,22.89Z"/><path class="cls-1" d="M4.36,19.64a2.16,2.16,0,0,0,1.55-.44,2.9,2.9,0,0,0,.61-.55A5.29,5.29,0,0,0,7.05,18c.15-.21.28-.44.41-.64s.24-.39.33-.55.15-.29.2-.39l.07-.14-.18,0-.47.15A8.47,8.47,0,0,0,6,17.1l-.38.22-.35.26a3.65,3.65,0,0,0-.58.6A1.64,1.64,0,0,0,4.36,19.64Z"/><path class="cls-1" d="M6.34,15.18a6.32,6.32,0,0,0,1.24-1l.25-.28.24-.26.39-.46c.1-.14.19-.25.26-.33l.09-.12s-.26,0-.66.09a7.62,7.62,0,0,0-1.44.42,4.54,4.54,0,0,0-.77.37,3.26,3.26,0,0,0-.64.51,2.26,2.26,0,0,0-.25.29,1.48,1.48,0,0,0-.17.33,1.38,1.38,0,0,0-.08.73A2.27,2.27,0,0,0,6.34,15.18Z"/><path class="cls-1" d="M10,9.7a6,6,0,0,0-.69,0,7.8,7.8,0,0,0-.78.12,5.78,5.78,0,0,0-.81.24,3.52,3.52,0,0,0-.39.17,2.18,2.18,0,0,0-.34.2,1.58,1.58,0,0,0-.78,1.2,2.15,2.15,0,0,0,1.5-.06,5.17,5.17,0,0,0,1.4-.73,10.13,10.13,0,0,0,1.08-.8c.29-.22.46-.38.46-.38A5.62,5.62,0,0,0,10,9.7Z"/><path class="cls-1" d="M12.5,6.78a7.66,7.66,0,0,0-1.45,0,5.19,5.19,0,0,0-1.61.38,1.86,1.86,0,0,0-1,1,1.69,1.69,0,0,0,.69.22,2.82,2.82,0,0,0,.76,0,4.18,4.18,0,0,0,.77-.21c.25-.09.49-.19.74-.3a12,12,0,0,0,1.23-.66,6.15,6.15,0,0,0,.53-.32S12.88,6.81,12.5,6.78Z"/><path class="cls-1" d="M12.13,4.08a1.85,1.85,0,0,0-1,1c.8.48,2,.12,2.87-.34a9.77,9.77,0,0,0,1.21-.67c.31-.2.5-.34.5-.34a9.35,9.35,0,0,0-2,0A5,5,0,0,0,12.13,4.08Z"/><path class="cls-1" d="M37.22,40.47a3.28,3.28,0,0,0,1.35-.87l.15-.19a2.25,2.25,0,0,0,.12-.21,3.12,3.12,0,0,0,.31-.87,3,3,0,0,0,.07-.89A5.5,5.5,0,0,0,38.89,36c-.07-.19-.14-.34-.19-.45a1.32,1.32,0,0,0-.09-.17l0,.05-.09.11-.29.42c-.12.18-.26.39-.39.63a6.8,6.8,0,0,0-.46.75l-.21.41-.09.21-.09.21a3.28,3.28,0,0,0-.25.83A1.57,1.57,0,0,0,37.22,40.47Z"/><path class="cls-1" d="M41.52,33.08a5.44,5.44,0,0,0-.41-.54s-.11.23-.25.6c0,.1-.06.2-.1.31s-.08.22-.13.34a7,7,0,0,0-.23.77l0,.21-.06.2c0,.14-.06.28-.08.42a3.33,3.33,0,0,0,0,.83,1.63,1.63,0,0,0,.8,1.37,3.57,3.57,0,0,0,.48-.28,1.68,1.68,0,0,0,.36-.34,2.53,2.53,0,0,0,.44-.8q0-.09.06-.21l0-.22a3.23,3.23,0,0,0,0-.44,3.43,3.43,0,0,0-.14-.85,3.94,3.94,0,0,0-.32-.76A5.47,5.47,0,0,0,41.52,33.08Z"/><path class="cls-1" d="M44.41,31.27c-.07-.13-.15-.25-.22-.36l-.25-.32a6.72,6.72,0,0,0-.5-.53,6.09,6.09,0,0,0-.52-.47s-.05.25-.09.62c0,.2,0,.41-.07.65s0,.5,0,.78a5.48,5.48,0,0,0,0,.81c0,.14,0,.27.07.41s.07.26.11.39A1.79,1.79,0,0,0,44,34.42a2,2,0,0,0,.38-.33,1.39,1.39,0,0,0,.27-.38,2,2,0,0,0,.21-.82,2,2,0,0,0,0-.42,3.2,3.2,0,0,0-.1-.42A4.25,4.25,0,0,0,44.41,31.27Z"/><path class="cls-1" d="M45.05,30a2.07,2.07,0,0,0,1.33.95,1.61,1.61,0,0,0,.28-.38,1.08,1.08,0,0,0,.16-.39,2,2,0,0,0,0-.81,2.62,2.62,0,0,0-.11-.4,3.49,3.49,0,0,0-.19-.39,4.54,4.54,0,0,0-.52-.7,5.54,5.54,0,0,0-.6-.59,6.2,6.2,0,0,0-.59-.45,6.28,6.28,0,0,0-.59-.38,5.27,5.27,0,0,0,.05.62l0,.3c0,.11,0,.22,0,.34a7.69,7.69,0,0,0,.14.76,4.77,4.77,0,0,0,.21.78c0,.13.1.26.16.38a1.62,1.62,0,0,0,.1.18Z"/><path class="cls-1" d="M47.88,26.23a2,2,0,0,0-.17-.78,3.57,3.57,0,0,0-1.07-1.34,5.15,5.15,0,0,0-.68-.5,6.59,6.59,0,0,0-.63-.38c-.38-.2-.65-.31-.65-.31s0,.24.16.61a9.84,9.84,0,0,0,.46,1.35,5.6,5.6,0,0,0,.36.74,4.76,4.76,0,0,0,.48.67,2.13,2.13,0,0,0,1.48.73A1.61,1.61,0,0,0,47.88,26.23Z"/><path class="cls-1" d="M48.63,22.66a1.86,1.86,0,0,0-.28-.74,3.22,3.22,0,0,0-.53-.65,6.25,6.25,0,0,0-.69-.56,9.11,9.11,0,0,0-1.38-.77c-.39-.18-.65-.27-.65-.27s.08.24.21.6q.11.29.27.63l.17.35.19.35a6,6,0,0,0,.47.69c.09.11.18.22.28.32a3.83,3.83,0,0,0,.29.28,2.2,2.2,0,0,0,1.54.56A1.58,1.58,0,0,0,48.63,22.66Z"/><path class="cls-1" d="M48.47,18.18a3.35,3.35,0,0,0-.59-.6l-.34-.26-.38-.22a8.47,8.47,0,0,0-1.41-.62l-.47-.15-.18,0a1.38,1.38,0,0,0,.07.14,3.68,3.68,0,0,0,.2.39c.09.16.19.35.32.55s.26.43.42.64a5.29,5.29,0,0,0,.53.64,2.9,2.9,0,0,0,.61.55,2.16,2.16,0,0,0,1.55.44A1.67,1.67,0,0,0,48.47,18.18Z"/><path class="cls-1" d="M48.11,14.41a2.26,2.26,0,0,0-.25-.29,3.59,3.59,0,0,0-.64-.51,4.54,4.54,0,0,0-.77-.37A7.62,7.62,0,0,0,45,12.82c-.4-.07-.66-.09-.66-.09l.09.12c.07.08.16.19.26.33l.39.46a3,3,0,0,0,.24.26l.25.28a6.32,6.32,0,0,0,1.24,1,2.27,2.27,0,0,0,1.54.29,1.49,1.49,0,0,0-.08-.73A1.73,1.73,0,0,0,48.11,14.41Z"/><path class="cls-1" d="M46.19,10.47a2.18,2.18,0,0,0-.34-.2l-.39-.17a5.78,5.78,0,0,0-.81-.24,7.56,7.56,0,0,0-.79-.12,5.71,5.71,0,0,0-.68,0,5.62,5.62,0,0,0-.65,0s.17.16.46.38a10.13,10.13,0,0,0,1.08.8,5.17,5.17,0,0,0,1.4.73,2.15,2.15,0,0,0,1.5.06A1.61,1.61,0,0,0,46.19,10.47Z"/><path class="cls-1" d="M43.72,7.15a5.19,5.19,0,0,0-1.61-.38,8.6,8.6,0,0,0-1.45,0c-.38,0-.63.07-.63.07a6.15,6.15,0,0,0,.53.32,12,12,0,0,0,1.23.66c.25.11.49.21.74.3a4.18,4.18,0,0,0,.77.21,2.82,2.82,0,0,0,.76,0,1.69,1.69,0,0,0,.69-.22A1.86,1.86,0,0,0,43.72,7.15Z"/><path class="cls-1" d="M39.18,4.72c.92.46,2.07.82,2.87.34a1.85,1.85,0,0,0-1-1,5,5,0,0,0-1.56-.39,9.35,9.35,0,0,0-2,0s.19.14.5.34A9.77,9.77,0,0,0,39.18,4.72Z"/><path class="cls-1" d="M49.25,27.5a2.22,2.22,0,0,0,1.63-.38,3.6,3.6,0,0,0,.72-.64,7.59,7.59,0,0,0,.59-.78,8.4,8.4,0,0,0,.75-1.57c.15-.43.22-.73.22-.73s-.27.12-.67.34c-.2.1-.42.23-.67.38s-.52.32-.78.5a6.7,6.7,0,0,0-1.38,1.27l0,.06c.18-.84.33-1.7.45-2.56a2.12,2.12,0,0,0,1.28-.53,3.14,3.14,0,0,0,.31-.32,3,3,0,0,0,.27-.35,5.67,5.67,0,0,0,.45-.8l.17-.41.14-.39c.08-.26.14-.5.19-.7A5,5,0,0,0,53,19.2s-.25.13-.61.36a9.84,9.84,0,0,0-1.29.93,6.13,6.13,0,0,0-.63.62,3.11,3.11,0,0,0-.23.28c0-.73,0-1.45,0-2.18a2.09,2.09,0,0,0,.9-.54,3.65,3.65,0,0,0,.5-.67,5.2,5.2,0,0,0,.34-.8,6.39,6.39,0,0,0,.22-.8c0-.26.08-.51.1-.72s0-.39,0-.51V15l-.15.1-.39.3a9.78,9.78,0,0,0-1.12,1,4.12,4.12,0,0,0-.28.31l-.27.34-.07.09a18,18,0,0,0-.39-2.07,1.67,1.67,0,0,0,.79-.62,3.14,3.14,0,0,0,.56-1.53c0-.14,0-.28,0-.42s0-.28,0-.41a5.19,5.19,0,0,0-.05-.72,2.6,2.6,0,0,0-.08-.51l0-.19s-.17.17-.41.46a10.55,10.55,0,0,0-.85,1.14,4.7,4.7,0,0,0-.39.69,1.59,1.59,0,0,0-.12.27,21.39,21.39,0,0,0-.94-2.2,1.47,1.47,0,0,0,.75-.78A3.42,3.42,0,0,0,49.1,8.7a7.23,7.23,0,0,0-.4-1.47c-.16-.38-.3-.64-.3-.64s-.12.2-.28.5-.16.34-.25.54-.19.43-.27.66a4.49,4.49,0,0,0-.19.72,2.23,2.23,0,0,0,0,.36.66.66,0,0,0,0,.14A20,20,0,0,0,45.7,7.29,1.18,1.18,0,0,0,46.1,7a1.23,1.23,0,0,0,.24-.59,2.44,2.44,0,0,0,0-.71,2.87,2.87,0,0,0-.2-.75,8.41,8.41,0,0,0-.65-1.31l-.39-.55a4.48,4.48,0,0,0-.18.5,6.71,6.71,0,0,0-.26,1.19,3.26,3.26,0,0,0,.06,1.39l0,.1C44,5.49,43.25,4.76,42.4,4c.84-.48.61-1.47.14-2.37A8,8,0,0,0,41.76.49c-.24-.3-.41-.49-.41-.49a5.85,5.85,0,0,0-.23,1.63A3.63,3.63,0,0,0,41.37,3l.13.24h0A13.44,13.44,0,0,0,39.39,1.8c5.34,4.48,9.42,9.89,10,16.1a26.68,26.68,0,0,1-.4,6.73A21.77,21.77,0,0,1,46.68,32a23.42,23.42,0,0,1-8.39,8.77,29.62,29.62,0,0,1-11.4,2.82h-.63a30.8,30.8,0,0,1-11.4-2.82A23.47,23.47,0,0,1,6.48,32a21.77,21.77,0,0,1-2.34-7.38,26.73,26.73,0,0,1-.4-6.74c.61-6.2,4.69-11.61,10-16.09a13.44,13.44,0,0,0-2.11,1.39h0A1.41,1.41,0,0,0,11.78,3,3.65,3.65,0,0,0,12,1.63,5.85,5.85,0,0,0,11.81,0s-.17.19-.41.49a8,8,0,0,0-.79,1.14c-.46.9-.69,1.89.15,2.37-.85.76-1.62,1.49-2.33,2.23l0-.1a3.43,3.43,0,0,0,.06-1.39,7.74,7.74,0,0,0-.26-1.19c-.1-.3-.18-.5-.18-.5l-.39.55A9.36,9.36,0,0,0,7,4.91a4,4,0,0,0-.2.75,2.83,2.83,0,0,0,0,.71A1.23,1.23,0,0,0,7.06,7a1.2,1.2,0,0,0,.4.33A20,20,0,0,0,5.81,9.51a.66.66,0,0,0,0-.14,2.23,2.23,0,0,0,0-.36,4.49,4.49,0,0,0-.19-.72l-.27-.66L5,7.09c-.16-.3-.28-.5-.28-.5a6.46,6.46,0,0,0-.3.64,7.23,7.23,0,0,0-.4,1.47,3.42,3.42,0,0,0,.14,1.55A1.47,1.47,0,0,0,5,11,21.39,21.39,0,0,0,4,13.23c0-.09-.08-.18-.12-.27a5.83,5.83,0,0,0-.39-.69,10.55,10.55,0,0,0-.85-1.14c-.24-.29-.41-.46-.41-.46l-.05.19a2.6,2.6,0,0,0-.08.51,5.19,5.19,0,0,0,0,.72c0,.13,0,.27,0,.41s0,.28.05.42a3.18,3.18,0,0,0,.56,1.53,1.69,1.69,0,0,0,.78.62,20.42,20.42,0,0,0-.39,2.07L3,17l-.27-.33c-.09-.11-.19-.21-.28-.31a9.78,9.78,0,0,0-1.12-1l-.39-.3L.78,15v.19c0,.12,0,.3,0,.51s.05.46.1.72a5,5,0,0,0,.22.8,5.2,5.2,0,0,0,.34.8,3.65,3.65,0,0,0,.5.67,2.09,2.09,0,0,0,.9.54c0,.73,0,1.45,0,2.18a3.11,3.11,0,0,0-.23-.28A5.34,5.34,0,0,0,2,20.49a9.18,9.18,0,0,0-1.28-.93C.4,19.33.15,19.2.15,19.2a5.87,5.87,0,0,0,.13.69c0,.2.12.44.2.7s.09.25.13.39l.18.41a5.67,5.67,0,0,0,.45.8,3,3,0,0,0,.27.35,3.14,3.14,0,0,0,.31.32,2.12,2.12,0,0,0,1.28.53c.11.86.27,1.72.45,2.56l0-.06a6.7,6.7,0,0,0-1.38-1.27c-.26-.18-.53-.35-.78-.5l-.67-.39C.27,23.52,0,23.4,0,23.4s.07.3.21.73A9.2,9.2,0,0,0,1,25.7a7.59,7.59,0,0,0,.59.78,3.34,3.34,0,0,0,.72.64,2.22,2.22,0,0,0,1.63.38l.09.32a20.34,20.34,0,0,0,.73,2.25l-.16-.17c-.13-.11-.25-.21-.39-.31l-.41-.3a9.68,9.68,0,0,0-.88-.52c-.3-.16-.62-.3-.89-.42L1.24,28c-.45-.18-.75-.28-.75-.28s.13.31.36.75a6.74,6.74,0,0,0,.47.73,7.58,7.58,0,0,0,.62.81,6.13,6.13,0,0,0,.79.74,3.25,3.25,0,0,0,.42.31l.22.14.23.11a2.39,2.39,0,0,0,1.77.16A18,18,0,0,0,6.8,33.9l-.27-.18a4.31,4.31,0,0,0-.47-.26,4.3,4.3,0,0,0-.48-.24,9.2,9.2,0,0,0-1-.41L4,32.65l-.49-.15-.85-.23c-.5-.12-.83-.18-.83-.18s.21.29.55.72a7.93,7.93,0,0,0,.65.69c.26.25.54.51.84.75a7.89,7.89,0,0,0,1,.63,4,4,0,0,0,.51.25,3.24,3.24,0,0,0,.52.19,2.41,2.41,0,0,0,1.86-.14c.54.67,1.1,1.34,1.7,2l-.07,0-.27-.09L8.87,37c-.17-.06-.36-.11-.55-.16a10.65,10.65,0,0,0-1.15-.24c-.39-.06-.74-.12-1.09-.16l-.92-.11-.89,0s.28.27.75.64c.11.1.24.2.37.3a5.27,5.27,0,0,0,.46.31c.32.21.68.42,1,.61l.28.15.3.12a6,6,0,0,0,.59.22,5.61,5.61,0,0,0,1.15.27,2.56,2.56,0,0,0,1.63-.28c.49.48,1,.93,1.53,1.37l-.49-.07c-.4,0-.83,0-1.21-.06-.79,0-1.55,0-2.1,0l-.67.06-.25,0,.06,0,.19.11.67.38c.28.15.61.32,1,.49s.78.31,1.2.44l.63.19.32.08.32.06a7.67,7.67,0,0,0,1.23.09,2.61,2.61,0,0,0,1.34-.34l.61.34a.18.18,0,0,0,.11,0,26.08,26.08,0,0,0,9,2.8c-2.26.42-4.92.88-7.74,1.31l-3.05,2.6s6.86-2.29,13.25-3.74c6.39,1.45,13.25,3.74,13.25,3.74L37,46c-2.89-.44-5.62-.91-7.92-1.34a22.93,22.93,0,0,0,8.79-2.77l.09,0,.6-.34a2.66,2.66,0,0,0,1.34.34,6.55,6.55,0,0,0,1.23-.09l.33-.06.31-.08.64-.19c.41-.13.82-.29,1.2-.44s.7-.34,1-.49l.67-.38.19-.11a.17.17,0,0,1,.06,0l-.25,0-.67-.06c-.56,0-1.31-.07-2.1,0-.38,0-.81,0-1.21.07a3.86,3.86,0,0,0-.49.06c.53-.44,1-.89,1.53-1.37a2.56,2.56,0,0,0,1.63.28,5.61,5.61,0,0,0,1.15-.27,6,6,0,0,0,.59-.22l.3-.12.28-.15c.36-.19.71-.4,1-.61a5.27,5.27,0,0,0,.46-.31c.13-.1.26-.2.37-.3.47-.37.75-.64.75-.64l-.89,0-.92.11c-.35,0-.7.1-1.09.16a10.65,10.65,0,0,0-1.15.24c-.19.05-.38.1-.55.16l-.27.1-.27.09-.07,0c.6-.66,1.16-1.33,1.7-2a2.41,2.41,0,0,0,1.86.14,4.56,4.56,0,0,0,.52-.18c.17-.08.34-.16.51-.26a7.89,7.89,0,0,0,1-.63c.3-.24.58-.5.84-.75a7.93,7.93,0,0,0,.65-.69c.34-.42.55-.72.55-.72s-.33.06-.83.18l-.85.23-.49.15-.52.17a7.57,7.57,0,0,0-1,.4q-.24.11-.48.24a4.31,4.31,0,0,0-.47.26l-.27.18a18,18,0,0,0,1.43-2.41,2.39,2.39,0,0,0,1.77-.16l.23-.11.22-.14a4.13,4.13,0,0,0,.42-.31,6.13,6.13,0,0,0,.79-.74,7.58,7.58,0,0,0,.62-.81,6.74,6.74,0,0,0,.47-.73c.23-.44.36-.75.36-.75s-.3.1-.75.28l-.76.33-.89.42a9.68,9.68,0,0,0-.88.52l-.41.3a4.08,4.08,0,0,0-.39.31l-.16.17a20.34,20.34,0,0,0,.73-2.25Z"/><path class="cls-1" d="M17.5,13.78a1.49,1.49,0,1,1,2.43-1.69c.06.11.09.2.26.2h4.35l.11,0a2,2,0,0,1,3.87,0H32.9a.35.35,0,0,0,.36-.21,1.47,1.47,0,0,1,2.07-.52,1.43,1.43,0,0,1,.44,2.06.28.28,0,0,0,0,.36c1,1.68,1.89,3.38,2.89,5a2.14,2.14,0,0,1,.25,1.68,4.47,4.47,0,0,1-8.81-.32,1.7,1.7,0,0,1,.23-1.22c1-1.71,2-3.43,2.95-5.16a.48.48,0,0,0-.42-.71H28.79a.33.33,0,0,0-.37.25,2,2,0,0,1-3.67,0,.3.3,0,0,0-.35-.24H20.27a.49.49,0,0,0-.4.7c1,1.71,1.92,3.42,2.93,5.11A2,2,0,0,1,23,20.54a4.48,4.48,0,0,1-8.85-.13,1.84,1.84,0,0,1,.25-1.27c1-1.75,2-3.53,3-5.3C17.48,13.82,17.48,13.8,17.5,13.78Zm4.23,5.49c-.05-.09-.08-.17-.12-.24-.86-1.51-1.73-3-2.58-4.53-.14-.26-.33-.21-.52-.2a.42.42,0,0,0-.26.2q-1.3,2.25-2.59,4.52l-.13.25Zm15.92,0L37.53,19l-2.6-4.55a.45.45,0,0,0-.77,0q-1.3,2.26-2.59,4.53c0,.07-.07.15-.12.25Z"/><path class="cls-1" d="M25.08,15.37a3.07,3.07,0,0,0,3,0l.41,11.77H24.66Z"/><path class="cls-1" d="M20.13,33.38a1.94,1.94,0,0,1,1.7-1.91l.38,0H31A2,2,0,0,1,33,33.19a1.19,1.19,0,0,1,0,.19Z"/><path class="cls-1" d="M31,30.34H22.15a2,2,0,0,1,1.14-1.92,2.39,2.39,0,0,1,.93-.25c1.58,0,3.16,0,4.73,0A2.16,2.16,0,0,1,31,30.34Z"/><path class="cls-1" d="M28,10.15a3.09,3.09,0,0,0-2.84,0,1.32,1.32,0,0,1,.41-1.29A1.45,1.45,0,0,1,28,10.15Z"/><path class="cls-2" d="M78.27,19.17c-.08,0-.11,0-.11.07a5.94,5.94,0,0,1-2.29,3.37,6.66,6.66,0,0,1-4,1.24h-1a3.83,3.83,0,0,1-1.13-.11.73.73,0,0,1-.47-.47,3.84,3.84,0,0,1-.11-1.12V8.41a4.09,4.09,0,0,1,.15-1.34.92.92,0,0,1,.6-.6,4.22,4.22,0,0,1,1.38-.17s.08-.06.08-.18,0-.18-.08-.18L69.69,6C68.77,6,68,6,67.42,6S66.05,6,65.14,6l-1.54,0s-.06.06-.06.18,0,.18.06.18A4.22,4.22,0,0,1,65,6.47a1,1,0,0,1,.62.58,3.85,3.85,0,0,1,.17,1.32V22.26a4,4,0,0,1-.17,1.34.94.94,0,0,1-.6.58,4.66,4.66,0,0,1-1.4.15s-.06.07-.06.18,0,.18.06.18H77.77a.46.46,0,0,0,.34-.1.47.47,0,0,0,.1-.35c0-1.32.1-3,.27-4.95,0,0,0,0-.07-.07A.3.3,0,0,0,78.27,19.17Z"/><path class="cls-2" d="M102.66,24.33a1.91,1.91,0,0,1-1.44-.81,16.34,16.34,0,0,1-1.74-2.94L92,5.82c0-.06-.11-.08-.27-.08s-.23,0-.27.08l-6.5,14.31a24.19,24.19,0,0,1-1.35,2.63A4,4,0,0,1,82.44,24a2.68,2.68,0,0,1-1.41.34c-.08,0-.12.07-.12.18s0,.18.12.18c.42,0,1,0,1.66-.06s1.41-.06,1.94-.06,1.22,0,2,.06,1.2.06,1.57.06c.09,0,.14-.06.14-.18s0-.18-.14-.18a3.23,3.23,0,0,1-2.06-.59,2,2,0,0,1-.77-1.69,4,4,0,0,1,.39-1.62l1.17-2.61h7.38l2,4.05a4.84,4.84,0,0,1,.6,1.71.6.6,0,0,1-.35.59,2.84,2.84,0,0,1-1.13.16c-.08,0-.11.07-.11.18s0,.18.11.18c.4,0,.94,0,1.63-.06s1.32-.06,1.82-.06,1,0,1.89.06,1.47.06,1.86.06c.11,0,.15-.06.15-.18S102.77,24.33,102.66,24.33ZM87.3,17l3.1-6.84L93.85,17Z"/><path class="cls-2" d="M129.67,6.12c0-.12,0-.18-.07-.18l-1.29,0c-.52,0-1,.06-1.37.06-.6,0-1.26,0-2-.06l-1.37,0c-.06,0-.1.06-.1.18s0,.18.1.18a1.58,1.58,0,0,1,1.24.54,2.2,2.2,0,0,1,.46,1.48,5,5,0,0,1-.35,1.73l-3.88,10.36-3.6-7.59,1.11-3c.88-2.35,2-3.54,3.33-3.54,0,0,.06-.06.06-.18s0-.18-.06-.18l-1.11,0q-.72.06-1.23.06a13.3,13.3,0,0,1-1.42,0,3.38,3.38,0,0,0-.53,0c-.06,0-.08.06-.08.18s0,.18.08.18q.75,0,.75.87a8,8,0,0,1-.66,2.58l-.75,2L115.62,9a7.38,7.38,0,0,1-.81-2.19.38.38,0,0,1,.2-.37,1.32,1.32,0,0,1,.61-.11c.07,0,.09-.06.09-.18s0-.18-.09-.18c-.32,0-.58,0-.77,0-.77,0-1.72.06-2.86.06a11.37,11.37,0,0,1-1.15,0,6.72,6.72,0,0,0-.71,0q-.09,0-.09.18t.09.18a1.32,1.32,0,0,1,1,.53,7.79,7.79,0,0,1,1,1.6l3.33,7.06-1.89,4.94L108.1,9a6,6,0,0,1-.7-2,.57.57,0,0,1,.32-.54,2.66,2.66,0,0,1,1.06-.15c.07,0,.09-.06.09-.18s0-.18-.09-.18q-.57,0-1,0c-.92,0-2,.06-3.38.06-.65,0-1.17,0-1.57-.06a4.35,4.35,0,0,0-.63,0s-.09.06-.09.18,0,.18.09.18a2.16,2.16,0,0,1,.92.17,1.63,1.63,0,0,1,.63.58,11.08,11.08,0,0,1,.73,1.38l7.66,16.23q0,.12.33.12t.33-.12l3-8.13,3.84,8.13q0,.12.33.12c.2,0,.32,0,.33-.12l5.56-14.82a7,7,0,0,1,1.6-2.59,3,3,0,0,1,2.08-1S129.67,6.24,129.67,6.12Z"/><path class="cls-2" d="M149.61,19.53c-.1,0-.16,0-.17.06a10.75,10.75,0,0,1-2.67,3.71,5.45,5.45,0,0,1-3.49,1.12,6.67,6.67,0,0,1-3.82-1.12,7.49,7.49,0,0,1-2.61-3.21,11.66,11.66,0,0,1-.95-4.85,11.56,11.56,0,0,1,.92-4.77,7.28,7.28,0,0,1,2.52-3.13A6.3,6.3,0,0,1,143,6.24a5.66,5.66,0,0,1,3.75,1.31,8.29,8.29,0,0,1,2.41,3.77c0,.08.1.1.21.09s.14-.07.14-.13l-.39-4.17a1.32,1.32,0,0,0-.1-.46.66.66,0,0,0-.35-.23,10.38,10.38,0,0,0-2.32-.58,18.81,18.81,0,0,0-2.87-.23,13,13,0,0,0-5.77,1.26,10.06,10.06,0,0,0-4.08,3.5,9,9,0,0,0-1.49,5.08,8.81,8.81,0,0,0,1.44,5,9.56,9.56,0,0,0,4,3.41,13.11,13.11,0,0,0,5.74,1.21,16.65,16.65,0,0,0,5.58-1,.73.73,0,0,0,.33-.23,1.75,1.75,0,0,0,.12-.47l.46-3.71C149.77,19.59,149.71,19.56,149.61,19.53Z"/><path class="cls-2" d="M174.69,15.12a9.85,9.85,0,0,0-1.15-4.65A9,9,0,0,0,170.23,7a9.39,9.39,0,0,0-5-1.34,12.15,12.15,0,0,0-5,1.11,9.71,9.71,0,0,0-4,3.32,8.92,8.92,0,0,0-1.57,5.29,10.27,10.27,0,0,0,1.19,4.88,8.94,8.94,0,0,0,3.36,3.54,9.48,9.48,0,0,0,5,1.3,10.74,10.74,0,0,0,5.23-1.31,10.39,10.39,0,0,0,3.86-3.61A9.16,9.16,0,0,0,174.69,15.12Zm-4.43,5.36a6.33,6.33,0,0,1-2.09,2.85,5,5,0,0,1-3,1A5.29,5.29,0,0,1,161.66,23a8.48,8.48,0,0,1-2.43-3.58,14.41,14.41,0,0,1-.88-5.21,9.73,9.73,0,0,1,1.46-5.74A4.86,4.86,0,0,1,164,6.42a5.83,5.83,0,0,1,3.71,1.24,7.76,7.76,0,0,1,2.44,3.4A13.63,13.63,0,0,1,171,16,12.26,12.26,0,0,1,170.26,20.48Z"/><path class="cls-2" d="M197.52,6q-1.08.06-1.65.06T194,6l-1.44,0s-.06.06-.06.18,0,.18.06.18a2.49,2.49,0,0,1,2.06.94,4,4,0,0,1,.73,2.54v8.38A6.13,6.13,0,0,1,194,22.49a5.06,5.06,0,0,1-3.9,1.51,4.88,4.88,0,0,1-4-1.71q-1.41-1.7-1.41-5.28V8.43a4,4,0,0,1,.17-1.33,1,1,0,0,1,.6-.61,3.54,3.54,0,0,1,1.36-.19q.09,0,.09-.18t-.09-.18l-1.53,0Q183.9,6,183,6T180.81,6l-1.59,0q-.09,0-.09.18t.09.18a4.15,4.15,0,0,1,1.37.17,1,1,0,0,1,.6.58,3.9,3.9,0,0,1,.16,1.32v9.7a7.12,7.12,0,0,0,1,3.76A6.26,6.26,0,0,0,185,24.27a8.8,8.8,0,0,0,3.93.84,8.6,8.6,0,0,0,3.92-.85,6.24,6.24,0,0,0,2.62-2.44,7.24,7.24,0,0,0,.93-3.7V9.78a4.28,4.28,0,0,1,.66-2.54,2.13,2.13,0,0,1,1.83-.94s.06-.06.06-.18,0-.18-.06-.18Z"/><path class="cls-2" d="M220.23,23.41a17.64,17.64,0,0,1-2.88-3q-1.62-2-4-5.64a6.63,6.63,0,0,0,2.4-2.14,5.24,5.24,0,0,0,.9-3,3.18,3.18,0,0,0-1.5-2.8,7.56,7.56,0,0,0-4.23-1c-.48,0-.91,0-1.3,0l-1,.06q-1.11.09-2.13.09-.81,0-2.19-.06l-1.59,0s-.06.06-.06.18,0,.18.06.18a4.26,4.26,0,0,1,1.38.17.92.92,0,0,1,.6.58,4.24,4.24,0,0,1,.15,1.32V22.26a4.08,4.08,0,0,1-.16,1.34.94.94,0,0,1-.6.58,4.67,4.67,0,0,1-1.39.15c-.07,0-.1.07-.1.18s0,.18.1.18c.67,0,1.21,0,1.61,0l2.19,0,2.28,0q.57,0,1.56,0s.07-.06.07-.18,0-.18-.07-.18a4.63,4.63,0,0,1-1.39-.15.89.89,0,0,1-.59-.57,4.37,4.37,0,0,1-.15-1.35V15.63c.32,0,.87,0,1.65,0a4.32,4.32,0,0,0,.69,0,73.62,73.62,0,0,0,4.36,6.68c1.19,1.59,2,2.38,2.45,2.38h5.34s.06-.06.06-.18,0-.18-.06-.18A4.21,4.21,0,0,1,220.23,23.41Zm-7.78-9.47a3,3,0,0,1-2.51,1,10.87,10.87,0,0,1-1.74-.12V8.43a1.94,1.94,0,0,1,.51-1.5,2.58,2.58,0,0,1,1.71-.44,2.45,2.45,0,0,1,2.07.92,5.79,5.79,0,0,1,.72,3.39A5.12,5.12,0,0,1,212.45,13.94Z"/><path class="cls-2" d="M240.05,5.07a.19.19,0,0,0-.2.12.91.91,0,0,1-.67.6,6.2,6.2,0,0,1-1.66.15l-2,0q-2,.06-3.75.06-3.47,0-6-.09c-1.14,0-1.71-.21-1.71-.66,0-.1,0-.15-.16-.15s-.17,0-.17.15c0,.64-.05,1.6-.15,2.87s-.19,2.3-.27,3.1c0,.07.05.1.15.11s.16,0,.18-.08q1.56-4.65,5.13-4.65A1.34,1.34,0,0,1,229.8,7a2.51,2.51,0,0,1,.27,1.38V22.26a3.49,3.49,0,0,1-.19,1.34,1,1,0,0,1-.72.58,6.36,6.36,0,0,1-1.61.15c-.06,0-.09.07-.09.18s0,.18.09.18q1.11,0,1.74,0l2.44,0,2.48,0q.63,0,1.71,0c.06,0,.1-.06.1-.18s0-.18-.1-.18a6.29,6.29,0,0,1-1.62-.15,1,1,0,0,1-.69-.57,3.73,3.73,0,0,1-.17-1.35V8.43A2.52,2.52,0,0,1,233.72,7a1.39,1.39,0,0,1,1.15-.38,4.26,4.26,0,0,1,3,1.16,6.24,6.24,0,0,1,1.68,3.46c0,.07.08.09.19.09s.14,0,.14-.09c0-.8,0-1.85.11-3.18s.13-2.28.19-2.88C240.21,5.12,240.16,5.07,240.05,5.07Z"/><polygon class="cls-2" points="69.45 41.98 66.92 35.87 65.41 35.87 65.41 43.52 66.66 43.52 66.66 37.79 68.88 43.52 69.98 43.52 72.19 37.79 72.19 43.52 73.46 43.52 73.46 35.87 71.94 35.87 69.45 41.98"/><rect class="cls-2" x="79.69" y="35.75" width="1.25" height="7.77"/><polygon class="cls-2" points="92.22 41.52 88.45 35.76 87.2 35.76 87.2 43.52 88.45 43.52 88.45 37.79 92.22 43.52 93.48 43.52 93.48 35.76 92.22 35.76 92.22 41.52"/><rect class="cls-2" x="99.73" y="35.75" width="1.25" height="7.77"/><path class="cls-2" d="M111.21,39.57a8.47,8.47,0,0,0-1.2-.46,9.81,9.81,0,0,1-.92-.35,1.42,1.42,0,0,1-.55-.41,1.09,1.09,0,0,1,.1-1.43,1.25,1.25,0,0,1,.84-.27,1.29,1.29,0,0,1,.92.32,1.33,1.33,0,0,1,.41.75h1.36a2.19,2.19,0,0,0-.8-1.49,2.87,2.87,0,0,0-1.89-.58,3.2,3.2,0,0,0-1.32.26,2.05,2.05,0,0,0-.88.73,2,2,0,0,0-.31,1.1,1.94,1.94,0,0,0,.32,1.16,2.17,2.17,0,0,0,.78.67,8.11,8.11,0,0,0,1.18.46c.4.13.71.25.94.35a1.86,1.86,0,0,1,.57.43,1,1,0,0,1,.23.68,1.11,1.11,0,0,1-.31.8,1.24,1.24,0,0,1-.89.3,1.43,1.43,0,0,1-1-.36,1.34,1.34,0,0,1-.43-.87H107a2.19,2.19,0,0,0,.43,1.17,2.4,2.4,0,0,0,1,.79,3.53,3.53,0,0,0,1.42.28,2.86,2.86,0,0,0,1.37-.3,2.07,2.07,0,0,0,.84-.79,2.14,2.14,0,0,0,.27-1.06,2,2,0,0,0-.32-1.19A2.2,2.2,0,0,0,111.21,39.57Z"/><polygon class="cls-2" points="117.72 36.76 119.88 36.76 119.88 43.52 121.14 43.52 121.14 36.76 123.31 36.76 123.31 35.75 117.72 35.75 117.72 36.76"/><path class="cls-2" d="M133.91,39.61a2.17,2.17,0,0,0,.51-1.49,2.25,2.25,0,0,0-.69-1.72,2.85,2.85,0,0,0-2-.65H129v7.77h1.26v-3.1h.89l1.93,3.1h1.41l-2-3.16A2.44,2.44,0,0,0,133.91,39.61Zm-3.68-.08v-2.7h1.38a1.59,1.59,0,0,1,1.15.36,1.3,1.3,0,0,1,.37,1c0,.9-.5,1.35-1.52,1.35Z"/><polygon class="cls-2" points="142.93 39.35 141.15 35.75 139.7 35.75 142.29 40.69 142.29 43.52 143.56 43.52 143.56 40.69 146.15 35.75 144.72 35.75 142.93 39.35"/><path class="cls-2" d="M164.66,36.16a4,4,0,0,0-3.91,0,3.6,3.6,0,0,0-1.38,1.41,4.4,4.4,0,0,0,0,4.11,3.6,3.6,0,0,0,1.38,1.41,3.94,3.94,0,0,0,3.91,0A3.67,3.67,0,0,0,166,41.68a4.47,4.47,0,0,0,0-4.11A3.67,3.67,0,0,0,164.66,36.16Zm.27,5a2.4,2.4,0,0,1-.91,1,2.48,2.48,0,0,1-1.31.34,2.56,2.56,0,0,1-1.33-.34,2.4,2.4,0,0,1-.91-1,3.61,3.61,0,0,1,0-3,2.34,2.34,0,0,1,.91-1,2.56,2.56,0,0,1,1.33-.34,2.48,2.48,0,0,1,1.31.34,2.34,2.34,0,0,1,.91,1,3.61,3.61,0,0,1,0,3Z"/><polygon class="cls-2" points="172.53 43.52 173.79 43.52 173.79 40.14 176.54 40.14 176.54 39.17 173.79 39.17 173.79 36.76 177.12 36.76 177.12 35.75 172.53 35.75 172.53 43.52"/><polygon class="cls-2" points="191.53 35.75 190.28 35.75 190.28 43.52 194.21 43.52 194.21 42.54 191.53 42.54 191.53 35.75"/><path class="cls-2" d="M202.2,35.87l-2.86,7.65h1.34l.6-1.68h3.27l.6,1.68h1.34l-2.85-7.65Zm-.57,5,1.28-3.63,1.29,3.63Z"/><polygon class="cls-2" points="219.27 42.07 217.57 35.75 216.18 35.75 214.48 42.07 213.13 35.75 211.76 35.75 213.69 43.52 215.24 43.52 216.87 37.51 218.51 43.52 220.05 43.52 221.99 35.75 220.61 35.75 219.27 42.07"/><path class="cls-2" d="M231.83,39.57a8.66,8.66,0,0,0-1.21-.46c-.39-.13-.69-.25-.92-.35a1.5,1.5,0,0,1-.55-.41,1,1,0,0,1-.22-.65,1,1,0,0,1,.32-.78,1.26,1.26,0,0,1,.85-.27A1.28,1.28,0,0,1,231,37a1.29,1.29,0,0,1,.42.75h1.35a2.15,2.15,0,0,0-.8-1.49,2.82,2.82,0,0,0-1.88-.58,3.2,3.2,0,0,0-1.32.26,1.92,1.92,0,0,0-1.19,1.83,1.88,1.88,0,0,0,.32,1.16,2.14,2.14,0,0,0,.77.67,8.59,8.59,0,0,0,1.18.46c.4.13.71.25.94.35a1.65,1.65,0,0,1,.57.43,1,1,0,0,1,.23.68,1.07,1.07,0,0,1-.31.8,1.24,1.24,0,0,1-.89.3,1.4,1.4,0,0,1-1-.36,1.36,1.36,0,0,1-.44-.87h-1.34a2.28,2.28,0,0,0,.43,1.17,2.47,2.47,0,0,0,1,.79,3.56,3.56,0,0,0,1.42.28,2.86,2.86,0,0,0,1.37-.3,2,2,0,0,0,.84-.79,2.14,2.14,0,0,0,.27-1.06,2,2,0,0,0-.32-1.19A2.26,2.26,0,0,0,231.83,39.57Z"/></svg>